<?xml version="1.0" encoding="utf-8"?>
<!-- Generator: Adobe Illustrator 24.2.0, SVG Export Plug-In . SVG Version: 6.00 Build 0)  -->
<svg version="1.1" id="Ebene_1" xmlns="http://www.w3.org/2000/svg" xmlns:xlink="http://www.w3.org/1999/xlink" x="0px" y="0px"
	 viewBox="0 0 10 1250" style="enable-background:new 0 0 10 1250;" xml:space="preserve">
<style type="text/css">
	.st0{fill:#FFFFFF;}
</style>
<path class="st0" d="M6.3,1249.4c0.2-4.6,0.3-10,0.7-8.1c-0.3-5.3-0.5-3.5-0.7,0c0.3-7,0-15.7,0.3-25.2c-0.2,1.7-0.6,3.3-0.6,1.6
	c0.4-15.8-0.7-7-0.8-17.7c0.5-6.1,1.3,2.2,0.8-8.6c0.4-6.6,0.9-1.4,1.2,1.2c-0.7-9.8,0.5-18.4,0.6-24l0.3,5.2
	c-0.2-3.1-0.2-5.6-0.2-8.2l-0.7,3c0.1-3,0.1-5.6,0.4-5.6c-2.5-0.8-2.1-15.8-1.3-17.5c-0.3,11.5,0.7,1,1,7c0-0.5,0-7.9,0.3-4
	c0.8-12.2-1.1-5.6-1-18.2c0.5,1.6,0-2.6-0.4-7.2c0.4-8.1-0.3-8.8-0.3-13l-0.2,4.8c-0.6-0.8-0.8-9.7-0.4-10.4
	c-0.1-14.8,2.5-29.8,2-45.5c-0.7,3-0.5,3.5-1.2-3.8l-0.5,6.1c0,5.1-1.3-2.2-0.6-10.3l1.8,0.2c0.8-12.1-0.9-21.6-0.5-37.4l-0.3,5.1
	c-0.7-2.1-0.1-9.7-0.4-14.8c2.6-15.6-0.4-35.3-0.7-51.7c0.6,3.7,1.1-1.9,1.5,6.3c0-4.1,0.1-7.8-0.3-7.8c-0.4-4.9,0.1-24.5-1.8-25.1
	c1.6-24.3,1.1-51,1-73.9c0.2,0.5,0.3,0,0.2,1.6c-2-23.8,0.7-11.8,0.7-40.8l0.1,2.1c0.4-16.5-1.6-37.4-1.9-58
	c0.8,3.2,0.4,4.7,1.2,2.7c-1.1,0-1.9-16.4,0.1-18.4v8.7c1.1-4.4,0-11.2,0.1-15.8l0.5,0.6c-0.2-13.3-1.3-13.5-1.2-27.8l-0.4,1.5
	c-0.2-15.4,1.2-25.7-0.4-44c0.9,5.2,1.3,16,1.8,22.7c0-5.1-0.1-17.4-0.7-20c0.1,2.1,0.4,4.7,0.2,6.7c-2.5-33.4,2.3-76.4,1.2-115.3
	c-1.8,7.4,0-6.1-1.9-4.8c-0.1-19.7,1.6-17.8,3.2-29.4c-0.7,1.5-0.9-3.7-0.7-9.8L6.6,523c-1-14.9,1.5-12.9,0.6-28l0.6,4.8
	c0.5-1.7-2-44.6-0.6-35.9c0.2-18.5-1.6-41.1-0.7-55.5l0.4,1.4c-0.1-3.4-0.8-6-0.4-10.3c1.2,1.6-0.7-10,0-13.9l0.5,3.9
	c0.6-18-1.2-27.7-1.5-42.8c1.3,0,1.8-14.1,2-21.2l0.2,0.2C6.6,284,6.2,255.2,7.5,210.4c-1.6,5-1.5-23.3-0.9-14.2
	c1.1-29.4-0.2-71.3-0.2-96.6l0.9,0.2C7.5,87,7.6,80.7,7.4,64.9L8.1,68C4.3,44.8,6.3-0.9,6.3-0.9s-1.9,0-6.6,0v1250.2h6.6V1249.4z"/>
</svg>
