<?xml version="1.0" encoding="utf-8"?>
<!-- Generator: Adobe Illustrator 24.2.0, SVG Export Plug-In . SVG Version: 6.00 Build 0)  -->
<svg version="1.1" id="Ebene_1" xmlns="http://www.w3.org/2000/svg" xmlns:xlink="http://www.w3.org/1999/xlink" x="0px" y="0px"
	 viewBox="0 0 1250 10" style="enable-background:new 0 0 1250 10;" xml:space="preserve">
<style type="text/css">
	.st0{fill:#FFFFFF;}
</style>
<path class="st0" d="M-0.1,6.5C4.6,6.6,9.9,6.7,8,7.1c5.3-0.3,3.5-0.5,0-0.7c7,0.3,15.7,0,25.2,0.3c-1.7-0.2-3.3-0.6-1.6-0.6
	c15.8,0.4,7-0.7,17.7-0.8c6.1,0.5-2.2,1.3,8.6,0.8c6.6,0.4,1.4,0.9-1.2,1.2c9.8-0.7,18.4,0.5,24,0.6l-5.2,0.3
	c3.1-0.2,5.6-0.2,8.2-0.2l-3-0.7c3,0.1,5.6,0.1,5.6,0.4c0.8-2.5,15.8-2.1,17.5-1.3c-11.5-0.3-1,0.7-7,1c0.5,0,7.9,0,4,0.3
	c12.2,0.8,5.6-1.1,18.2-1c-1.6,0.5,2.6,0,7.2-0.4c8.1,0.4,8.8-0.3,13-0.3L134.5,6c0.8-0.6,9.7-0.8,10.4-0.4
	c14.8-0.1,29.8,2.5,45.5,2c-3-0.7-3.5-0.5,3.8-1.2l-6.1-0.5c-5.1,0,2.2-1.3,10.3-0.6L198.2,7c12.1,0.8,21.6-0.9,37.4-0.5l-5.1-0.3
	c2.1-0.7,9.7-0.1,14.8-0.4c15.6,2.6,35.3-0.4,51.7-0.7c-3.7,0.6,1.9,1.1-6.3,1.5c4.1,0,7.8,0.1,7.8-0.3c4.9-0.4,24.5,0.1,25.1-1.8
	c24.3,1.6,51,1.1,73.9,1c-0.5,0.2,0,0.3-1.6,0.2c23.8-2,11.8,0.7,40.8,0.7l-2.1,0.1c16.5,0.4,37.4-1.6,58-1.9
	c-3.2,0.8-4.7,0.4-2.7,1.2c0-1.1,16.4-1.9,18.4,0.1l-8.7,0c4.4,1.1,11.2,0,15.8,0.1l-0.6,0.5c13.3-0.2,13.5-1.3,27.8-1.2l-1.5-0.4
	c15.4-0.2,25.7,1.2,44-0.4c-5.2,0.9-16,1.3-22.7,1.8c5.1,0,17.4-0.1,20-0.7c-2.1,0.1-4.7,0.4-6.7,0.2c33.4-2.5,76.4,2.3,115.3,1.2
	c-7.4-1.8,6.1,0,4.8-1.9c19.7-0.1,17.8,1.6,29.4,3.2c-1.5-0.7,3.7-0.9,9.8-0.7l-8.6-0.8c14.9-1,12.9,1.5,28,0.6l-4.8,0.6
	c1.7,0.5,44.6-2,35.9-0.6C804,7.8,826.7,6,841,7l-1.4,0.4c3.4-0.1,6-0.8,10.3-0.4c-1.6,1.2,10-0.7,13.9,0L860,7.5
	c18,0.6,27.7-1.2,42.8-1.5c0,1.3,14.1,1.8,21.2,2l-0.2,0.2c41.7-1.1,70.5-1.5,115.3-0.2c-5-1.6,23.3-1.5,14.2-0.9
	c29.4,1.1,71.3-0.2,96.6-0.2l-0.2,0.9c12.8,0.2,19.1,0.3,34.9,0.1l-3.2,0.6c23.1-3.9,68.8-1.9,68.8-1.9s0-1.9,0-6.6H-0.1V6.5z"/>
</svg>
