<?xml version="1.0" encoding="utf-8"?>
<!-- Generator: Adobe Illustrator 15.0.0, SVG Export Plug-In  -->
<!DOCTYPE svg PUBLIC "-//W3C//DTD SVG 1.1//EN" "http://www.w3.org/Graphics/SVG/1.1/DTD/svg11.dtd" [
	<!ENTITY ns_flows "http://ns.adobe.com/Flows/1.0/">
]>
<svg version="1.1"
	 xmlns="http://www.w3.org/2000/svg" xmlns:xlink="http://www.w3.org/1999/xlink" xmlns:a="http://ns.adobe.com/AdobeSVGViewerExtensions/3.0/"
	 x="0px" y="0px" width="97px" height="7px" viewBox="1.752 -3.084 97 7"
	 overflow="visible" enable-background="new 1.752 -3.084 97 7" xml:space="preserve">
<defs>
</defs>
<g>
	<g>
		<path fill="#ADADAD" d="M0.521,1.72c16.963,0.033,34.052-1.156,50.945-0.044c7.857,0.518,15.869-0.016,23.755,0.161
			c7.866,0.176,15.875,0.01,23.74-0.284c0.619-0.023,2.084-1.001,0.789-0.953c-7.285,0.272-14.653,0.344-21.943,0.312
			C68.908,0.873,59.812,1.214,50.942,0.63C42.889,0.1,35.182,0.437,27.121,0.746C18.525,1.076,9.91,0.784,1.311,0.767
			C0.683,0.766-0.777,1.717,0.521,1.72L0.521,1.72z"/>
	</g>
</g>
</svg>
