<?xml version="1.0" encoding="utf-8"?>
<!-- Generator: Adobe Illustrator 24.2.0, SVG Export Plug-In . SVG Version: 6.00 Build 0)  -->
<svg version="1.1" id="Ebene_1" xmlns="http://www.w3.org/2000/svg" xmlns:xlink="http://www.w3.org/1999/xlink" x="0px" y="0px"
	 viewBox="0 0 560 230" style="enable-background:new 0 0 560 230;" xml:space="preserve">
<style type="text/css">
	.st0{fill:#FFFFFF;}
</style>
<g>
	<path class="st0" d="M58.5,127.8c0-7.7-0.9-8.9-7.3-8.9v-1.6h17.6v1.6c-6.4,0-7.4,1.2-7.4,8.9v37h-1.8L28.3,126v26.8
		c0,7.7,1,9,7.4,9v1.6H18.1v-1.6c6.4,0,7.3-1.3,7.3-9v-25c0-7.7-0.9-8.9-7.3-8.9v-1.6H29l29.6,36.6V127.8z"/>
	<path class="st0" d="M75.8,156c-1.9,4.5-1.9,5.8,4.2,5.8v1.6H65.4v-1.6c4.7,0,5.4-0.9,7.9-6.7l11.3-26.3h1.1L97,155.1
		c2.5,5.8,3.5,6.7,7.5,6.7v1.6H87.3v-1.6c5.5,0,6.1-1.3,4.2-5.8l-1.5-3.5H77.3L75.8,156z M83.6,137.8l-5.1,11.8h10.2L83.6,137.8z"/>
	<path class="st0" d="M111.8,133.1c-7.1,0-7.7,1.3-8.6,4.9l-0.4,1.5h-1.5l0.5-9.5h34.3l0.5,9.5H135l-0.4-1.5
		c-0.9-3.6-1.8-4.9-8.9-4.9h-4v19.8c0,7.7,1,9,6.2,9v1.5h-17.7v-1.5c5.2,0,6.2-1.3,6.2-9v-19.8H111.8z"/>
	<path class="st0" d="M159.5,161.3c5.4,0,9.4-3.1,9.4-9.8v-10.9c0-7.7-0.9-8.9-6.1-8.9v-1.5h15.7v1.5c-5.1,0-6.1,1.2-6.1,8.9V151
		c0,9-6.2,13.7-13.8,13.7c-7.5,0-13.7-4.7-13.7-13.7v-10.4c0-7.7-0.9-8.9-6.1-8.9v-1.5h17.6v1.5c-5.1,0-6.1,1.2-6.1,8.9v10.9
		C150.4,158.2,154.1,161.3,159.5,161.3z"/>
	<path class="st0" d="M205.1,154.7c3.1,3.6,6.6,6.6,10.3,7.2v1.5h-9.9l-10.5-14.3h-2.2v3.8c0,7.7,0.9,9,6.1,9v1.5h-17.6v-1.5
		c5.2,0,6.1-1.3,6.1-9v-12.3c0-7.7-0.9-8.9-6.1-8.9v-1.5h15.9c7.9,0,12.3,4.1,12.3,9.5c0,4.7-3.5,8.5-9.3,9.3L205.1,154.7z
		 M197.3,132.9h-4.4v13.4h4.4c4.3,0,6.3-3,6.3-6.6C203.6,136,201.6,132.9,197.3,132.9z"/>
	<path class="st0" d="M247.3,144.4v-3.8c0-7.7-0.9-8.9-6.1-8.9v-1.5h17.6v1.5c-5.1,0-6.1,1.2-6.1,8.9v12.3c0,7.7,1,9,6.1,9v1.5
		h-17.6v-1.5c5.2,0,6.1-1.3,6.1-9v-5.7h-17.5v5.7c0,7.7,0.9,9,6.1,9v1.5h-17.6v-1.5c5.2,0,6.1-1.3,6.1-9v-12.3
		c0-7.7-0.9-8.9-6.1-8.9v-1.5h17.6v1.5c-5.2,0-6.1,1.2-6.1,8.9v3.8H247.3z"/>
	<path class="st0" d="M290.2,155.7l0.4-1.5h1.5l-0.6,9.3h-28.8v-1.5c5.2,0,6.1-1.3,6.1-9v-12.3c0-7.7-0.9-8.9-6.1-8.9v-1.5h17h9.9
		l0.6,9.2h-1.6l-0.4-1.5c-0.8-3.5-1.8-4.9-8.9-4.9h-5.2v11.5h0.5c7.7,0,8.3-0.9,8.3-6.1h1.5v15h-1.5c0-5.1-0.6-6.1-8.3-6.1h-0.5v4.5
		c0,7.7,0.9,8.9,6.1,8.9h0.9C288.3,160.6,289.3,159.3,290.2,155.7z"/>
	<path class="st0" d="M296.5,163.4v-1.5c5.2,0,6.1-1.3,6.1-9v-12.3c0-7.7-0.9-8.9-6.1-8.9v-1.5h17.6v1.5c-5.2,0-6.1,1.2-6.1,8.9
		v12.3c0,7.7,0.9,9,6.1,9v1.5H296.5z"/>
	<path class="st0" d="M318.7,131.7v-1.5h17.6v1.5c-5.2,0-6.1,1.2-6.1,8.9v11.1c0,7.7,0.9,8.9,6.1,8.9h2.7c7.1,0,8-1.3,8.9-4.9
		l0.4-1.5h1.6l-0.5,9.3h-30.7v-1.5c5.2,0,6.1-1.3,6.1-9v-12.3C324.8,132.9,323.8,131.7,318.7,131.7z"/>
	<path class="st0" d="M370.4,161.9v1.5h-17.6v-1.5c5.2,0,6.1-1.3,6.1-9v-12.3c0-7.7-0.9-8.9-6.1-8.9v-1.5h15.9
		c7.9,0,12.3,4.1,12.3,9.5c0,5.3-4.4,9.5-12.3,9.5h-4.4v3.8C364.3,160.6,365.3,161.9,370.4,161.9z M368.7,132.9h-4.4v13.4h4.4
		c4.3,0,6.3-3,6.3-6.6C375,136,373,132.9,368.7,132.9z"/>
	<path class="st0" d="M406.8,154.7c3.1,3.6,6.6,6.6,10.3,7.2v1.5h-9.9l-10.5-14.3h-2.2v3.8c0,7.7,0.9,9,6.1,9v1.5H383v-1.5
		c5.2,0,6.1-1.3,6.1-9v-12.3c0-7.7-0.9-8.9-6.1-8.9v-1.5H399c7.9,0,12.3,4.1,12.3,9.5c0,4.7-3.5,8.5-9.3,9.3L406.8,154.7z
		 M399,132.9h-4.4v13.4h4.4c4.3,0,6.3-3,6.3-6.6C405.3,136,403.3,132.9,399,132.9z"/>
	<path class="st0" d="M428.9,156c-1.9,4.5-1.9,5.8,4.2,5.8v1.6h-14.5v-1.6c4.7,0,5.4-0.9,7.9-6.7l11.3-26.3h1.1l11.3,26.3
		c2.5,5.8,3.5,6.7,7.5,6.7v1.6h-17.2v-1.6c5.5,0,6.1-1.3,4.2-5.8l-1.5-3.5h-12.6L428.9,156z M436.7,137.8l-5.1,11.8h10.2
		L436.7,137.8z"/>
	<path class="st0" d="M471.8,156c-3.5,4.5-2.5,5.8,2,5.8v1.6h-14.5v-1.6c3.6,0,5.7-1.8,9.6-6.7l6.3-8l-6.2-8.7
		c-3.6-5.2-5.2-6.8-9.2-6.8v-1.5h17.2v1.5c-4.9,0-5,1.5-2,5.9l3.6,5.3l4.2-5.3c3.6-4.7,2.7-5.9-2-5.9v-1.5h14.5v1.5
		c-3.9,0-5.8,1.9-9.6,6.8l-5.4,6.7l7,10c3.6,5.2,5.6,6.7,9.3,6.7v1.6h-17.2v-1.6c4.9,0,5.1-1.3,1.9-5.8l-4.5-6.4L471.8,156z"/>
	<path class="st0" d="M499.3,163.4v-1.5c5.2,0,6.1-1.3,6.1-9v-12.3c0-7.7-0.9-8.9-6.1-8.9v-1.5h17.6v1.5c-5.2,0-6.1,1.2-6.1,8.9
		v12.3c0,7.7,0.9,9,6.1,9v1.5H499.3z"/>
	<path class="st0" d="M532,164.8c-4,0-7.2-1.9-8.6-2.8c-0.5,0.5-1.2,1.5-1.5,2.8h-1.4v-13.2h1.5c0.6,6.5,4.8,10.2,10.5,10.2
		c3.3,0,5.9-1.8,5.9-5.2c0-2.7-2.2-4.8-6.3-6.9l-5.2-2.7c-3.7-1.9-6.4-5.1-6.4-9.4c0-4.8,4.1-8.8,9.6-8.8c3.2,0,5.7,1.2,7.3,2.3
		c0.4-0.5,1-1.2,1.2-2.4h1.5v13h-1.5c-0.5-4.6-2.5-10.1-8.1-10.1c-3,0-5.5,1.6-5.5,4.5c0,2.7,2,4.2,6.7,6.6l5.2,2.7
		c4.4,2.2,6,5.7,6,8.7C542.9,160.5,537.9,164.8,532,164.8z"/>
</g>
<g>
	<path class="st0" d="M86.6,198v6.9h-2.1v-16.2h6c2.3,0,3.6,0,4.9,1c1.2,0.9,1.7,2.3,1.7,3.7c0,3.8-3.1,4.3-3.8,4.5l4.6,7h-2.6
		l-4.4-6.9H86.6z M86.6,196.2h4.3c0.7,0,1.3,0,2-0.2c1.5-0.4,2-1.4,2-2.6c0-0.4,0-1.5-1-2.3c-0.9-0.7-1.9-0.7-3.2-0.7h-4.2V196.2z"
		/>
	<path class="st0" d="M114.1,205.3c-4.9,0-8.1-3.5-8.1-8.5c0-6,4.2-8.5,8.2-8.5c4.6,0,8.2,3.1,8.2,8.4
		C122.3,201.5,119.4,205.3,114.1,205.3z M114.1,190c-4.1,0-5.8,3.2-5.8,6.8c0,3.4,1.7,6.8,5.9,6.8c4.4,0,5.8-3.6,5.8-7
		C119.9,192.7,117.9,190,114.1,190z"/>
	<path class="st0" d="M137.7,197.4c-2.3-0.5-5.8-1.3-5.8-4.6c0-1.6,0.9-2.6,1.5-3.2c1.4-1.2,3.2-1.4,4.3-1.4c1.1,0,2.9,0.1,4.4,1.2
		c1.6,1.2,1.9,2.8,2.1,3.8l-2.2,0.1c0-0.5-0.1-1.8-1.3-2.7c-0.8-0.6-1.9-0.8-2.9-0.8c-2,0-3.7,0.8-3.7,2.6c0,1.8,1.8,2.2,3.2,2.5
		l1.8,0.5c1.2,0.3,1.9,0.4,2.6,0.7c2.4,1,2.8,3,2.8,4c0,1.5-0.6,2.9-2.1,3.9c-1.6,1.1-3.4,1.2-4.4,1.2c-1.5,0-6.5-0.2-6.9-5.6
		l2.3-0.3c0,0.6,0.1,2,1.3,3.1c0.9,0.8,2.1,1.1,3.3,1.1c2.3,0,4-1.1,4-3.2c0-1.9-1.5-2.4-3.1-2.7L137.7,197.4z"/>
	<path class="st0" d="M156.4,197.5v5.5h9.4v1.9h-11.5v-16.2h11.2v1.9h-9.1v5h7.9v1.9H156.4z"/>
	<path class="st0" d="M192.5,196.9l-2.3,2.3v5.7H188v-16.2h2.2v7.9l7.7-7.9h2.7l-6.6,6.7l6.9,9.5h-2.6L192.5,196.9z"/>
	<path class="st0" d="M211.8,198v6.9h-2.1v-16.2h6c2.3,0,3.6,0,4.9,1c1.2,0.9,1.7,2.3,1.7,3.7c0,3.8-3.1,4.3-3.8,4.5l4.6,7h-2.6
		L216,198H211.8z M211.8,196.2h4.3c0.7,0,1.3,0,2-0.2c1.5-0.4,2-1.4,2-2.6c0-0.4,0-1.5-1-2.3c-0.9-0.7-1.9-0.7-3.2-0.7h-4.2V196.2z"
		/>
	<path class="st0" d="M241.5,199.9h-6.2l-1.8,5h-2.3l6.2-16.2h2.3l5.9,16.2h-2.3L241.5,199.9z M240.9,198.1l-2.4-6.8l-2.5,6.8H240.9
		z"/>
	<path class="st0" d="M266.2,188.6V199c0,0.7,0,1.4-0.2,2.1c-0.5,2-2.3,4.2-6.1,4.2c-1.2,0-3.4-0.2-5-2.2c-1.1-1.4-1.1-2.6-1.1-4.4
		v-10.1h2.2v9.8c0,1.5,0,2.8,0.8,3.8c1,1.2,2.4,1.3,3,1.3c1.9,0,3.4-0.9,3.9-2.7c0.2-0.7,0.2-1.4,0.2-2.4v-9.7H266.2z"/>
	<path class="st0" d="M282.2,197.4c-2.3-0.5-5.8-1.3-5.8-4.6c0-1.6,0.9-2.6,1.5-3.2c1.4-1.2,3.2-1.4,4.3-1.4c1.1,0,2.9,0.1,4.4,1.2
		c1.6,1.2,1.9,2.8,2.1,3.8l-2.2,0.1c0-0.5-0.1-1.8-1.3-2.7c-0.8-0.6-1.9-0.8-2.9-0.8c-2,0-3.7,0.8-3.7,2.6c0,1.8,1.8,2.2,3.2,2.5
		l1.8,0.5c1.2,0.3,1.9,0.4,2.6,0.7c2.4,1,2.8,3,2.8,4c0,1.5-0.6,2.9-2.1,3.9c-1.6,1.1-3.4,1.2-4.4,1.2c-1.5,0-6.5-0.2-6.9-5.6
		l2.3-0.3c0,0.6,0.1,2,1.3,3.1c0.9,0.8,2.1,1.1,3.3,1.1c2.3,0,4-1.1,4-3.2c0-1.9-1.5-2.4-3.1-2.7L282.2,197.4z"/>
	<path class="st0" d="M301,197.5v5.5h9.4v1.9h-11.5v-16.2h11.2v1.9H301v5h7.9v1.9H301z"/>
	<path class="st0" d="M323.1,197.2v1.7h-4.6v-1.7H323.1z"/>
	<path class="st0" d="M338.4,197.4c-2.3-0.5-5.8-1.3-5.8-4.6c0-1.6,0.9-2.6,1.5-3.2c1.4-1.2,3.2-1.4,4.3-1.4c1.2,0,2.9,0.1,4.4,1.2
		c1.6,1.2,1.9,2.8,2.1,3.8l-2.2,0.1c0-0.5-0.1-1.8-1.3-2.7c-0.8-0.6-1.9-0.8-2.9-0.8c-2,0-3.7,0.8-3.7,2.6c0,1.8,1.8,2.2,3.2,2.5
		l1.8,0.5c1.2,0.3,1.9,0.4,2.6,0.7c2.4,1,2.8,3,2.8,4c0,1.5-0.6,2.9-2.1,3.9c-1.6,1.1-3.4,1.2-4.4,1.2c-1.5,0-6.5-0.2-6.9-5.6
		l2.3-0.3c0,0.6,0.1,2,1.3,3.1c0.9,0.8,2.1,1.1,3.3,1.1c2.3,0,4-1.1,4-3.2c0-1.9-1.5-2.4-3.1-2.7L338.4,197.4z"/>
	<path class="st0" d="M370.1,199c-0.7,3.1-3.3,6.3-8,6.3c-5.4,0-7.9-4-7.9-8.5c0-4.6,2.6-8.5,8.2-8.5c5.6,0,7,3.9,7.4,5l-2.2,0.5
		c-0.2-0.6-0.4-1.1-1-1.8c-0.8-1-2.2-1.9-4.3-1.9c-1.7,0-3.4,0.7-4.5,2c-1,1.3-1.4,3-1.4,4.6c0,4,2,6.9,5.8,6.9
		c2.4,0,4.9-1.4,5.4-4.8L370.1,199z"/>
	<path class="st0" d="M388.7,197.5h-8.8v7.4h-2.2v-16.3h2.2v6.9h8.8v-6.9h2.2v16.3h-2.2V197.5z"/>
	<path class="st0" d="M410.2,199.9H404l-1.8,5h-2.3l6.2-16.2h2.3l5.9,16.2H412L410.2,199.9z M405.9,184.6v2.3h-2v-2.3H405.9z
		 M409.5,198.1l-2.4-6.8l-2.5,6.8H409.5z M410.4,184.6v2.3h-2v-2.3H410.4z"/>
	<path class="st0" d="M425.4,197.3v7.6h-2.2v-16.3h10.4v1.9h-8.3v4.8h7.7v1.9H425.4z"/>
	<path class="st0" d="M444.7,197.5v5.5h9.4v1.9h-11.5v-16.2h11.2v1.9h-9.1v5h7.9v1.9H444.7z"/>
	<path class="st0" d="M465.4,198v6.9h-2.1v-16.2h6c2.3,0,3.6,0,4.9,1c1.2,0.9,1.7,2.3,1.7,3.7c0,3.8-3.1,4.3-3.8,4.5l4.6,7H474
		l-4.4-6.9H465.4z M465.4,196.2h4.3c0.7,0,1.3,0,2-0.2c1.5-0.4,2-1.4,2-2.6c0-0.4,0-1.5-1-2.3c-0.9-0.7-1.9-0.7-3.2-0.7h-4.2V196.2z
		"/>
</g>
<path class="st0" d="M328.1,46.1c0-0.1,0-0.2,0-0.2c-0.1-0.7-0.4-1.3-0.9-1.8l0.1-0.1c-5.9-4.6-13.1-6.3-19.9-5.5
	c-5.6,0.7-10.9,3.2-15.1,7.4c-4.8-11.1-16.4-18.2-29-16.6C244.4,31.7,231,49,233.4,67.9c3,23.6,24.6,40.2,48.1,37.2
	c14.7-1.9,27.3-9.3,35.7-19.9C325.7,74.6,330,60.8,328.1,46.1z M312.3,82.3c-7.6,9.9-18.9,16.8-32.2,18.5
	c-10.6,1.4-20.7-1.7-28.5-7.8c-7.8-6.1-13.3-15.1-14.7-25.7c-1.1-8.4,1.4-16.5,6.2-22.8c4.8-6.2,12-10.6,20.5-11.7
	c6.7-0.9,13.2,1.1,18.1,4.9c5,3.8,8.5,9.6,9.3,16.3c0.7,5.3-0.9,10.5-3.9,14.4c-3,3.9-7.5,6.7-12.8,7.4l-0.7,0.1
	c-4.1,0.4-7.9-0.9-10.9-3.2c-3.1-2.4-5.4-6.1-5.9-10.3c-0.4-3.4,0.5-6.6,2.5-9.1c1.9-2.5,4.8-4.2,8.1-4.7c0,0,0,0,0,0
	c5.3-0.7,10.2,3.1,10.9,8.4c0.5,4.2-2.4,8-6.6,8.6c-2.4,0.3-4.6-0.8-5.8-2.7c-0.5-0.8-0.8-1.7-0.9-2.7l-1.1,0.1l0,0.1l0,0
	c0.1,1.1,0.5,2.1,1.1,3c1.5,2.5,4.4,3.9,7.5,3.6c5.2-0.7,8.8-5.4,8.2-10.6c-0.8-6.4-6.7-10.9-13.1-10.1c-7.9,1-13.5,8.7-12.5,16.7
	c1.3,9.8,10.2,17,20.1,16c0,0,0,0,0,0c12.2-2,20.8-13.2,19.3-25.4c0,0,0-0.3,0-0.3c-0.1-0.7-0.2-1.6-0.4-2.3c3.6-4.6,8.6-7.3,14-8
	c4.7-0.6,9.6,0.3,14,2.9c0,0.1-0.1,0.2-0.1,0.2v0l0.1,0C323.7,59.7,319.9,72.4,312.3,82.3z"/>
</svg>
