<?xml version="1.0" encoding="utf-8"?>
<!-- Generator: Adobe Illustrator 24.2.0, SVG Export Plug-In . SVG Version: 6.00 Build 0)  -->
<svg version="1.1" id="Ebene_1" xmlns="http://www.w3.org/2000/svg" xmlns:xlink="http://www.w3.org/1999/xlink" x="0px" y="0px"
	 viewBox="0 0 50 66" style="enable-background:new 0 0 50 66;" xml:space="preserve">
<style type="text/css">
	.st0{opacity:0.5;}
	.st1{fill:#333333;}
	.st2{fill:#5E2368;}
</style>
<g class="st0">
	<path class="st1" d="M37.9,45.4c-11.4-2.6-26.4-1.2-33.4,3.1c-9.3,5.7,0.4,17,0.4,17s31.7-2,41-7.7C52.9,53.5,49.4,48,37.9,45.4z
		 M19.7,56.5c-5-1.1-6.5-3.5-3.5-5.4s9.5-2.4,14.5-1.3s6.5,3.5,3.5,5.4S24.7,57.6,19.7,56.5z"/>
</g>
<g>
	<path class="st2" d="M-77.9,0.5c-13.8,0-25,11.2-25,25c0,18.3,25,40,25,40s25-21.7,25-40C-52.9,11.7-64.1,0.5-77.9,0.5z
		 M-77.9,36.3c-6,0-10.8-4.9-10.8-10.8s4.9-10.8,10.8-10.8s10.8,4.9,10.8,10.8S-71.9,36.3-77.9,36.3z"/>
</g>
</svg>
