<?xml version="1.0" encoding="utf-8"?>
<!-- Generator: Adobe Illustrator 24.2.0, SVG Export Plug-In . SVG Version: 6.00 Build 0)  -->
<svg version="1.1" id="Ebene_1" xmlns="http://www.w3.org/2000/svg" xmlns:xlink="http://www.w3.org/1999/xlink" x="0px" y="0px"
	 viewBox="0 0 40 50" style="enable-background:new 0 0 40 50;" xml:space="preserve">
<style type="text/css">
	.st0{fill:#5E2368;}
	.st1{fill:#FFFFFF;}
</style>
<g>
	<path class="st0" d="M20,0C9.4,0,0.8,8.6,0.8,19.2C0.8,33.3,20,50,20,50s19.2-16.7,19.2-30.8C39.2,8.6,30.6,0,20,0z M20,27.6
		c-4.6,0-8.3-3.7-8.3-8.3S15.4,11,20,11s8.3,3.7,8.3,8.3S24.6,27.6,20,27.6z"/>
</g>
<path class="st1" d="M20,29.1c-5.4,0-9.8-4.4-9.8-9.8s4.4-9.8,9.8-9.8c5.4,0,9.8,4.4,9.8,9.8S25.4,29.1,20,29.1z M20,12.5
	c-3.7,0-6.8,3.1-6.8,6.8s3.1,6.8,6.8,6.8c3.7,0,6.8-3.1,6.8-6.8S23.7,12.5,20,12.5z"/>
</svg>
