<?xml version="1.0" encoding="utf-8"?>
<!-- Generator: Adobe Illustrator 24.2.0, SVG Export Plug-In . SVG Version: 6.00 Build 0)  -->
<svg version="1.1" id="Ebene_1" xmlns="http://www.w3.org/2000/svg" xmlns:xlink="http://www.w3.org/1999/xlink" x="0px" y="0px"
	 viewBox="0 0 50 66" style="enable-background:new 0 0 50 66;" xml:space="preserve">
<style type="text/css">
	.st0{opacity:0.5;}
	.st1{fill:#333333;}
	.st2{fill:#5E2368;}
</style>
<g class="st0">
	<path class="st1" d="M140.9,45.4c-11.4-2.6-26.4-1.2-33.4,3.1c-9.3,5.7,0.4,17,0.4,17s31.7-2,41-7.7
		C155.9,53.5,152.3,48,140.9,45.4z M122.6,56.5c-5-1.1-6.5-3.5-3.5-5.4c3-1.9,9.5-2.4,14.5-1.3s6.5,3.5,3.5,5.4
		C134.1,57,127.6,57.6,122.6,56.5z"/>
</g>
<g>
	<path class="st2" d="M25,0.5c-13.8,0-25,11.2-25,25c0,18.3,25,40,25,40s25-21.7,25-40C50,11.7,38.8,0.5,25,0.5z M25,36.3
		c-6,0-10.8-4.9-10.8-10.8S19,14.7,25,14.7s10.8,4.9,10.8,10.8S31,36.3,25,36.3z"/>
</g>
</svg>
