<?xml version="1.0" encoding="utf-8"?>
<!-- Generator: Adobe Illustrator 24.2.0, SVG Export Plug-In . SVG Version: 6.00 Build 0)  -->
<svg version="1.1" id="Ebene_1" xmlns="http://www.w3.org/2000/svg" xmlns:xlink="http://www.w3.org/1999/xlink" x="0px" y="0px"
	 viewBox="0 0 40 50" style="enable-background:new 0 0 40 50;" xml:space="preserve">
<style type="text/css">
	.st0{opacity:0.5;}
	.st1{fill:#333333;}
	.st2{fill:#5E2368;}
</style>
<g class="st0">
	<path class="st1" d="M30.2,33.5c-9-2-20.7-0.9-26.2,2.4c-7.3,4.5,0.3,13.4,0.3,13.4s24.9-1.6,32.2-6.1
		C41.9,39.9,39.1,35.5,30.2,33.5z M15.9,42.2c-3.9-0.9-5.1-2.8-2.7-4.2c2.4-1.5,7.5-1.9,11.4-1c3.9,0.9,5.1,2.8,2.7,4.2
		S19.7,43.1,15.9,42.2z"/>
</g>
<g>
	<path class="st2" d="M-30.8,0C-41.4,0-50,8.6-50,19.2C-50,33.3-30.8,50-30.8,50s19.2-16.7,19.2-30.8C-11.6,8.6-20.2,0-30.8,0z
		 M-30.8,27.6c-4.6,0-8.3-3.7-8.3-8.3s3.7-8.3,8.3-8.3s8.3,3.7,8.3,8.3S-26.2,27.6-30.8,27.6z"/>
</g>
</svg>
